<svg width="19" height="24" viewBox="0 0 19 24" fill="none" xmlns="http://www.w3.org/2000/svg">
<path d="M15.9105 8.50139C15.9215 8.3454 15.9215 8.18941 15.9215 8.03343C15.8994 3.58774 12.3245 0 7.9442 0C7.93316 0 7.92213 0 7.9111 0L3.07838 0.0222841C2.25086 0.0222841 1.4785 0.356546 0.893722 0.947075C0.308941 1.5376 0 2.32869 0 3.16435L0.0772353 20.8802C0.0772353 21.7159 0.408243 22.4958 0.993025 23.0864C1.57781 23.6657 2.35016 23.9889 3.17768 23.9889H3.18871L9.2241 23.9554C11.6625 23.9443 13.9575 22.9749 15.6677 21.2256C17.389 19.4763 18.3268 17.1588 18.3158 14.6964C18.3158 12.3788 17.4552 10.195 15.9105 8.50139ZM1.4123 3.1532C1.4123 2.69638 1.57781 2.27298 1.89778 1.94986C2.21776 1.62674 2.63703 1.44847 3.07838 1.44847L7.90006 1.42618C7.9111 1.42618 7.92213 1.42618 7.93316 1.42618C9.67647 1.42618 11.3094 2.10585 12.5562 3.34262C13.6044 4.38997 14.2554 5.73816 14.443 7.18663C12.9093 6.09471 11.0888 5.50418 9.17996 5.50418C9.16893 5.50418 9.14686 5.50418 9.13583 5.50418C6.70843 5.52646 4.41344 6.49582 2.70323 8.24513C2.22879 8.73538 1.80951 9.2702 1.4454 9.83844L1.4123 3.1532ZM12.9093 15.532L12.8983 15.5543C12.0708 16.6462 10.9674 17.493 9.70957 18.0056C9.44477 18.117 9.14686 18.117 8.88205 18.0056C7.62422 17.5153 6.52086 16.6797 5.68231 15.5989L5.66024 15.5766C5.29613 15.1532 5.11959 14.6072 5.1527 14.039C5.2189 12.9582 6.05745 12.0891 7.12771 12C7.18288 12 7.24908 11.9889 7.30425 11.9889C7.67939 11.9889 8.05453 12.0891 8.37451 12.2786C8.92619 12.6017 9.61027 12.6017 10.1509 12.2674C10.5261 12.0446 10.9564 11.9443 11.3977 11.9777C12.4569 12.0557 13.3065 12.9136 13.3838 13.9833C13.4279 14.5627 13.2624 15.1086 12.9093 15.532ZM14.6637 20.2228C13.2072 21.7047 11.2763 22.5181 9.21306 22.5292L3.17768 22.5627C3.17768 22.5627 3.17768 22.5627 3.16665 22.5627C2.23982 22.5627 1.48954 21.805 1.48954 20.8691L1.46747 14.7744C1.45644 12.6908 2.25086 10.7298 3.70729 9.25905C5.15269 7.77716 7.09461 6.95265 9.1579 6.95265C9.16893 6.95265 9.17996 6.95265 9.191 6.95265C11.2101 6.95265 13.0638 7.74373 14.432 9.03621C14.3106 9.89415 14.0237 10.7075 13.5824 11.454C13.0197 10.9526 12.2914 10.6295 11.497 10.5738C10.7688 10.5181 10.0516 10.6964 9.43373 11.0641C9.3234 11.1309 9.191 11.1309 9.08066 11.0641C8.46278 10.6964 7.74559 10.5292 7.01737 10.585C5.252 10.7298 3.8397 12.1783 3.74039 13.961C3.68523 14.8858 3.98313 15.7883 4.56791 16.4903C5.56094 17.7716 6.87394 18.7521 8.36347 19.3315C8.66138 19.454 8.97032 19.5098 9.2903 19.5098C9.61027 19.5098 9.93025 19.4429 10.2392 19.3203C11.7287 18.7187 13.0417 17.7159 14.0237 16.4234C14.5975 15.7103 14.8733 14.8078 14.8071 13.8942C14.774 13.4596 14.6637 13.0362 14.4982 12.6574C14.9836 11.9554 15.3588 11.1866 15.5905 10.3844C16.418 11.6212 16.9035 13.1031 16.9145 14.7075C16.9145 16.7911 16.1201 18.7521 14.6637 20.2228Z" fill="white"/>
</svg>
